<svg width="105" height="121" viewBox="0 0 105 121" fill="none" xmlns="http://www.w3.org/2000/svg">
<path d="M52.5 60.5C60.4565 60.5 68.0871 57.313 73.7132 51.64C79.3393 45.967 82.5 38.2728 82.5 30.25C82.5 22.2272 79.3393 14.533 73.7132 8.86002C68.0871 3.18704 60.4565 0 52.5 0C44.5435 0 36.9129 3.18704 31.2868 8.86002C25.6607 14.533 22.5 22.2272 22.5 30.25C22.5 38.2728 25.6607 45.967 31.2868 51.64C36.9129 57.313 44.5435 60.5 52.5 60.5ZM41.7891 71.8438C18.7031 71.8438 0 90.7027 0 113.981C0 117.857 3.11719 121 6.96094 121H98.0391C101.883 121 105 117.857 105 113.981C105 90.7027 86.2969 71.8438 63.2109 71.8438H41.7891Z" fill="#E1DFDC"/>
</svg>
