<svg width="140" height="140" viewBox="0 0 140 140" fill="none" xmlns="http://www.w3.org/2000/svg">
<g clip-path="url(#clip0_0_76)">
<path d="M106.452 78.225C101.868 87.5175 95.655 96.775 89.3025 105.088C83.2698 112.919 76.8266 120.425 70 127.575C63.1734 120.425 56.7302 112.919 50.6975 105.088C44.345 96.775 38.1325 87.5175 33.5475 78.225C28.91 68.8363 26.25 60.0425 26.25 52.5C26.25 40.8968 30.8594 29.7688 39.0641 21.5641C47.2688 13.3594 58.3968 8.75 70 8.75C81.6032 8.75 92.7312 13.3594 100.936 21.5641C109.141 29.7688 113.75 40.8968 113.75 52.5C113.75 60.0425 111.081 68.8363 106.452 78.225ZM70 140C70 140 122.5 90.2475 122.5 52.5C122.5 38.5761 116.969 25.2226 107.123 15.3769C97.2774 5.53123 83.9239 0 70 0C56.0761 0 42.7226 5.53123 32.8769 15.3769C23.0312 25.2226 17.5 38.5761 17.5 52.5C17.5 90.2475 70 140 70 140Z" fill="#379777"/>
<path d="M70 70C65.3587 70 60.9075 68.1563 57.6256 64.8744C54.3437 61.5925 52.5 57.1413 52.5 52.5C52.5 47.8587 54.3437 43.4075 57.6256 40.1256C60.9075 36.8437 65.3587 35 70 35C74.6413 35 79.0925 36.8437 82.3744 40.1256C85.6562 43.4075 87.5 47.8587 87.5 52.5C87.5 57.1413 85.6562 61.5925 82.3744 64.8744C79.0925 68.1563 74.6413 70 70 70ZM70 78.75C76.9619 78.75 83.6387 75.9844 88.5616 71.0616C93.4844 66.1387 96.25 59.4619 96.25 52.5C96.25 45.5381 93.4844 38.8613 88.5616 33.9384C83.6387 29.0156 76.9619 26.25 70 26.25C63.0381 26.25 56.3613 29.0156 51.4384 33.9384C46.5156 38.8613 43.75 45.5381 43.75 52.5C43.75 59.4619 46.5156 66.1387 51.4384 71.0616C56.3613 75.9844 63.0381 78.75 70 78.75Z" fill="#379777"/>
</g>
<defs>
<clipPath id="clip0_0_76">
<rect width="140" height="140" fill="#379777"/>
</clipPath>
</defs>
</svg>
