<svg width="140" height="79" viewBox="0 0 140 79" fill="none" xmlns="http://www.w3.org/2000/svg">
<path d="M35 4.375C35 3.21468 35.4609 2.10188 36.2814 1.28141C37.1019 0.460937 38.2147 0 39.375 0H52.5C53.6603 0 54.7731 0.460937 55.5936 1.28141C56.4141 2.10188 56.875 3.21468 56.875 4.375C56.875 5.53532 56.4141 6.64812 55.5936 7.46859C54.7731 8.28906 53.6603 8.75 52.5 8.75V13.125H88.725L92.1025 2.9925C92.3925 2.12168 92.9491 1.36414 93.6935 0.827093C94.4378 0.290045 95.3322 0.000696909 96.25 0H105C106.16 0 107.273 0.460937 108.094 1.28141C108.914 2.10188 109.375 3.21468 109.375 4.375C109.375 5.53532 108.914 6.64812 108.094 7.46859C107.273 8.28906 106.16 8.75 105 8.75H99.4L96.6788 16.9312L103.74 28.2188C109.825 25.7094 116.63 25.5774 122.808 27.8491C128.985 30.1208 134.084 34.6303 137.093 40.4839C140.103 46.3375 140.803 53.1081 139.056 59.4539C137.309 65.7997 133.242 71.2577 127.66 74.7461C122.079 78.2345 115.391 79.4988 108.921 78.2885C102.451 77.0782 96.6723 73.4816 92.7294 68.2114C88.7864 62.9412 86.9672 56.3821 87.6322 49.8338C88.2973 43.2856 91.398 37.2261 96.32 32.8563L91.875 25.7512L73.71 54.8188C73.3167 55.448 72.7699 55.9669 72.1209 56.3266C71.4719 56.6863 70.742 56.875 70 56.875H52.1413C51.2338 62.2405 48.6813 67.1913 44.8369 71.0426C40.9925 74.8939 36.0462 77.4552 30.6824 78.3722C25.3185 79.2892 19.8023 78.5166 14.8968 76.1612C9.99127 73.8059 5.93901 69.9842 3.30062 65.2249C0.66223 60.4656 -0.431862 55.004 0.169708 49.5957C0.771278 44.1874 3.03877 39.0997 6.65849 35.0365C10.2782 30.9733 15.0712 28.1355 20.3744 26.9157C25.6776 25.6958 31.2288 26.1542 36.26 28.2275L43.75 16.24V8.75H39.375C38.2147 8.75 37.1019 8.28906 36.2814 7.46859C35.4609 6.64812 35 5.53532 35 4.375ZM48.125 25.7512L43.68 32.8737C48.055 36.7588 51.1175 42.0962 52.1413 48.125H62.1075L48.125 25.7512ZM70 44.2488L83.9825 21.875H56.0175L70 44.2488ZM43.1988 48.125C42.4533 45.2466 40.9868 42.6056 38.9375 40.4513L34.1425 48.125H43.1988ZM31.5263 35.805C28.1882 34.7509 24.6108 34.722 21.2562 35.7222C17.9016 36.7224 14.9241 38.7056 12.7084 41.4156C10.4926 44.1256 9.14052 47.4378 8.82678 50.9242C8.51305 54.4106 9.25209 57.911 10.9484 60.9731C12.6447 64.0351 15.2204 66.518 18.3425 68.101C21.4646 69.684 24.9898 70.2943 28.4623 69.8531C31.9349 69.4118 35.1954 67.9393 37.8224 65.6257C40.4494 63.3122 42.3222 60.264 43.1988 56.875H26.25C25.4691 56.875 24.7023 56.666 24.0294 56.2696C23.3565 55.8732 22.802 55.3039 22.4234 54.6209C22.0449 53.9378 21.856 53.1659 21.8765 52.3852C21.897 51.6045 22.1261 50.8435 22.54 50.1812L31.5263 35.805ZM101.063 40.4425C98.1296 43.5313 96.4239 47.5837 96.2651 51.8401C96.1064 56.0965 97.5054 60.2647 100.2 63.5634C102.895 66.8622 106.7 69.0649 110.902 69.7587C115.105 70.4526 119.416 69.5899 123.028 67.3325C126.64 65.075 129.305 61.5777 130.522 57.4961C131.74 53.4146 131.428 49.0289 129.643 45.1613C127.859 41.2937 124.725 38.2097 120.83 36.4872C116.934 34.7648 112.544 34.5222 108.483 35.805L117.46 50.1812C117.765 50.6684 117.97 51.2109 118.065 51.7775C118.16 52.3442 118.142 52.9239 118.013 53.4838C117.884 54.0436 117.646 54.5725 117.312 55.0402C116.978 55.508 116.556 55.9055 116.069 56.21C115.582 56.5145 115.039 56.7201 114.472 56.8149C113.906 56.9098 113.326 56.8922 112.766 56.763C112.206 56.6338 111.678 56.3956 111.21 56.062C110.742 55.7284 110.345 55.306 110.04 54.8188L101.063 40.4425Z" fill="black"/>
</svg>
