<svg width="140" height="106" viewBox="0 0 140 106" fill="none" xmlns="http://www.w3.org/2000/svg">
<path d="M0 18C0 13.3587 1.84374 8.90752 5.12563 5.62563C8.40752 2.34374 12.8587 0.5 17.5 0.5H122.5C127.141 0.5 131.592 2.34374 134.874 5.62563C138.156 8.90752 140 13.3587 140 18V88C140 92.6413 138.156 97.0925 134.874 100.374C131.592 103.656 127.141 105.5 122.5 105.5H17.5C12.8587 105.5 8.40752 103.656 5.12563 100.374C1.84374 97.0925 0 92.6413 0 88V18ZM17.5 9.25C15.1794 9.25 12.9538 10.1719 11.3128 11.8128C9.67187 13.4538 8.75 15.6794 8.75 18V26.75H131.25V18C131.25 15.6794 130.328 13.4538 128.687 11.8128C127.046 10.1719 124.821 9.25 122.5 9.25H17.5ZM131.25 44.25H8.75V88C8.75 90.3206 9.67187 92.5462 11.3128 94.1872C12.9538 95.8281 15.1794 96.75 17.5 96.75H122.5C124.821 96.75 127.046 95.8281 128.687 94.1872C130.328 92.5462 131.25 90.3206 131.25 88V44.25Z" fill="black"/>
</svg>
