<svg width="128" height="146" viewBox="0 0 128 146" fill="none" xmlns="http://www.w3.org/2000/svg">
<path fill-rule="evenodd" clip-rule="evenodd" d="M86.8125 31.9375C86.8125 25.8872 84.409 20.0848 80.1309 15.8066C75.8527 11.5285 70.0503 9.125 64 9.125C57.9497 9.125 52.1473 11.5285 47.8691 15.8066C43.591 20.0848 41.1875 25.8872 41.1875 31.9375V36.5H86.8125V31.9375ZM95.9375 31.9375V36.5H127.875V127.75C127.875 132.59 125.952 137.232 122.53 140.655C119.107 144.077 114.465 146 109.625 146H18.375C13.5348 146 8.89284 144.077 5.4703 140.655C2.04776 137.232 0.125 132.59 0.125 127.75V36.5H32.0625V31.9375C32.0625 23.4671 35.4273 15.3437 41.4168 9.35428C47.4062 3.36483 55.5296 0 64 0C72.4704 0 80.5938 3.36483 86.5832 9.35428C92.5727 15.3437 95.9375 23.4671 95.9375 31.9375ZM90.0427 80.7927C90.8995 79.936 91.3808 78.7741 91.3808 77.5625C91.3808 76.3509 90.8995 75.189 90.0427 74.3323C89.186 73.4755 88.0241 72.9942 86.8125 72.9942C85.6009 72.9942 84.439 73.4755 83.5823 74.3323L59.4375 98.4861L48.9803 88.0198C48.556 87.5955 48.0524 87.259 47.4982 87.0295C46.944 86.7999 46.3499 86.6817 45.75 86.6817C45.1501 86.6817 44.556 86.7999 44.0018 87.0295C43.4476 87.259 42.944 87.5955 42.5197 88.0198C42.0955 88.444 41.759 88.9476 41.5295 89.5018C41.2999 90.056 41.1817 90.6501 41.1817 91.25C41.1817 91.8499 41.2999 92.444 41.5295 92.9982C41.759 93.5524 42.0955 94.056 42.5197 94.4802L56.2072 108.168C56.6311 108.593 57.1345 108.93 57.6888 109.16C58.2431 109.39 58.8374 109.508 59.4375 109.508C60.0376 109.508 60.6319 109.39 61.1862 109.16C61.7405 108.93 62.2439 108.593 62.6678 108.168L90.0427 80.7927Z" fill="#E1DFDC"/>
</svg>
