<svg width="131" height="146" viewBox="0 0 131 146" fill="none" xmlns="http://www.w3.org/2000/svg">
<path d="M65.5 9.125C71.6746 9.125 77.5962 11.5285 81.9623 15.8066C86.3284 20.0848 88.7812 25.8872 88.7812 31.9375V36.5H42.2188V31.9375C42.2188 25.8872 44.6716 20.0848 49.0377 15.8066C53.4038 11.5285 59.3254 9.125 65.5 9.125ZM98.0938 36.5V31.9375C98.0938 23.4671 94.6598 15.3437 88.5473 9.35428C82.4347 3.36483 74.1444 0 65.5 0C56.8556 0 48.5653 3.36483 42.4527 9.35428C36.3402 15.3437 32.9062 23.4671 32.9062 31.9375V36.5H0.3125V127.75C0.3125 132.59 2.27477 137.232 5.76764 140.655C9.2605 144.077 13.9978 146 18.9375 146H112.062C117.002 146 121.739 144.077 125.232 140.655C128.725 137.232 130.688 132.59 130.688 127.75V36.5H98.0938ZM9.625 45.625H121.375V127.75C121.375 130.17 120.394 132.491 118.647 134.202C116.901 135.914 114.532 136.875 112.062 136.875H18.9375C16.4677 136.875 14.099 135.914 12.3526 134.202C10.6061 132.491 9.625 130.17 9.625 127.75V45.625Z" fill="black"/>
</svg>
