<svg width="102" height="75" viewBox="0 0 102 75" fill="none" xmlns="http://www.w3.org/2000/svg">
<path d="M98.8469 13.0027C102.818 10.0975 102.818 5.3793 98.8469 2.47403C94.8755 -0.431244 88.426 -0.431244 84.4547 2.47403L51 26.9713L17.5135 2.49727C13.5422 -0.408002 7.09269 -0.408002 3.12134 2.49727C-0.850016 5.40254 -0.850016 10.1207 3.12134 13.026L36.6078 37.5L3.15311 61.9973C-0.818245 64.9025 -0.818245 69.6207 3.15311 72.526C7.12446 75.4313 13.5739 75.4313 17.5453 72.526L51 48.0287L84.4865 72.5027C88.4578 75.408 94.9073 75.408 98.8786 72.5027C102.85 69.5975 102.85 64.8793 98.8786 61.974L65.3922 37.5L98.8469 13.0027Z" fill="black"/>
</svg>
