<svg width="140" height="140" viewBox="0 0 140 140" fill="none" xmlns="http://www.w3.org/2000/svg">
<path d="M140 70.4288C140 31.5263 108.658 -0.00872803 70 -0.00872803C31.325 2.19727e-05 -0.0174561 31.5263 -0.0174561 70.4375C-0.0174561 105.586 25.585 134.724 59.045 140.009V90.79H41.2825V70.4375H59.0625V54.9063C59.0625 37.2575 69.5188 27.51 85.505 27.51C93.17 27.51 101.176 28.8838 101.176 28.8838V46.2088H92.3475C83.6588 46.2088 80.9463 51.6425 80.9463 57.2163V70.4288H100.354L97.2563 90.7813H80.9375V140C114.398 134.715 140 105.578 140 70.4288Z" fill="#379777"/>
</svg>
