<svg width="140" height="140" viewBox="0 0 140 140" fill="none" xmlns="http://www.w3.org/2000/svg">
<path d="M0 10.0275C0 4.48875 4.6025 0 10.2812 0H129.719C135.397 0 140 4.48875 140 10.0275V129.973C140 135.511 135.397 140 129.719 140H10.2812C4.6025 140 0 135.511 0 129.973V10.0275ZM43.2512 117.198V53.9788H22.2425V117.198H43.2512ZM32.7513 45.3425C40.075 45.3425 44.6337 40.495 44.6337 34.4225C44.5025 28.2188 40.0838 23.5025 32.8913 23.5025C25.6987 23.5025 21 28.2275 21 34.4225C21 40.495 25.5588 45.3425 32.6113 45.3425H32.7513ZM75.6963 117.198V81.8913C75.6963 80.0013 75.8363 78.1112 76.3962 76.7637C77.91 72.9925 81.3662 69.0813 87.1763 69.0813C94.78 69.0813 97.8162 74.8737 97.8162 83.3788V117.198H118.825V80.9375C118.825 61.5125 108.465 52.4825 94.64 52.4825C83.4925 52.4825 78.4962 58.6075 75.6963 62.9212V63.14H75.5563L75.6963 62.9212V53.9788H54.6963C54.9587 59.9113 54.6963 117.198 54.6963 117.198H75.6963Z" fill="#379777"/>
</svg>
