<svg width="98" height="66" viewBox="0 0 98 66" fill="none" xmlns="http://www.w3.org/2000/svg">
<path d="M0 5.5C0 2.45781 3.12812 0 7 0H91C94.8719 0 98 2.45781 98 5.5C98 8.54219 94.8719 11 91 11H7C3.12812 11 0 8.54219 0 5.5ZM0 33C0 29.9578 3.12812 27.5 7 27.5H91C94.8719 27.5 98 29.9578 98 33C98 36.0422 94.8719 38.5 91 38.5H7C3.12812 38.5 0 36.0422 0 33ZM98 60.5C98 63.5422 94.8719 66 91 66H7C3.12812 66 0 63.5422 0 60.5C0 57.4578 3.12812 55 7 55H91C94.8719 55 98 57.4578 98 60.5Z" fill="black"/>
</svg>
