<svg width="146" height="146" viewBox="0 0 146 146" fill="none" xmlns="http://www.w3.org/2000/svg">
<path d="M146 73C146 73.2566 146 73.5133 146 73.7699C145.886 84.1781 136.419 91.25 126.011 91.25H98.0938C90.5371 91.25 84.4062 97.3809 84.4062 104.938C84.4062 105.907 84.5203 106.848 84.6914 107.761C85.2902 110.669 86.5449 113.464 87.7711 116.287C89.5105 120.222 91.2215 124.129 91.2215 128.263C91.2215 137.331 85.0621 145.572 75.9941 145.943C74.9961 145.971 73.998 146 72.9715 146C32.6789 146 0 113.321 0 73C0 32.6789 32.6789 0 73 0C113.321 0 146 32.6789 146 73ZM36.5 82.125C36.5 79.7049 35.5386 77.3839 33.8274 75.6727C32.1161 73.9614 29.7951 73 27.375 73C24.9549 73 22.6339 73.9614 20.9226 75.6727C19.2114 77.3839 18.25 79.7049 18.25 82.125C18.25 84.5451 19.2114 86.8661 20.9226 88.5773C22.6339 90.2886 24.9549 91.25 27.375 91.25C29.7951 91.25 32.1161 90.2886 33.8274 88.5773C35.5386 86.8661 36.5 84.5451 36.5 82.125ZM36.5 54.75C38.9201 54.75 41.2411 53.7886 42.9523 52.0773C44.6636 50.3661 45.625 48.0451 45.625 45.625C45.625 43.2049 44.6636 40.8839 42.9523 39.1727C41.2411 37.4614 38.9201 36.5 36.5 36.5C34.0799 36.5 31.7589 37.4614 30.0476 39.1727C28.3364 40.8839 27.375 43.2049 27.375 45.625C27.375 48.0451 28.3364 50.3661 30.0476 52.0773C31.7589 53.7886 34.0799 54.75 36.5 54.75ZM82.125 27.375C82.125 24.9549 81.1636 22.6339 79.4523 20.9226C77.7411 19.2114 75.4201 18.25 73 18.25C70.5799 18.25 68.2589 19.2114 66.5477 20.9226C64.8364 22.6339 63.875 24.9549 63.875 27.375C63.875 29.7951 64.8364 32.1161 66.5477 33.8274C68.2589 35.5386 70.5799 36.5 73 36.5C75.4201 36.5 77.7411 35.5386 79.4523 33.8274C81.1636 32.1161 82.125 29.7951 82.125 27.375ZM109.5 54.75C111.92 54.75 114.241 53.7886 115.952 52.0773C117.664 50.3661 118.625 48.0451 118.625 45.625C118.625 43.2049 117.664 40.8839 115.952 39.1727C114.241 37.4614 111.92 36.5 109.5 36.5C107.08 36.5 104.759 37.4614 103.048 39.1727C101.336 40.8839 100.375 43.2049 100.375 45.625C100.375 48.0451 101.336 50.3661 103.048 52.0773C104.759 53.7886 107.08 54.75 109.5 54.75Z" fill="black"/>
</svg>
