<svg width="140" height="140" viewBox="0 0 140 140" fill="none" xmlns="http://www.w3.org/2000/svg">
<path d="M102.743 90.51C111.215 78.9485 115.01 64.6143 113.368 50.3751C111.725 36.1358 104.767 23.0417 93.8855 13.7124C83.0036 4.38308 69.0003 -0.493444 54.6774 0.0584461C40.3544 0.610336 26.7679 6.54994 16.6361 16.689C6.50437 26.828 0.574486 40.4187 0.0328447 54.7421C-0.508796 69.0654 4.37775 83.0652 13.7149 93.9404C23.052 104.816 36.1511 111.764 50.3915 113.396C64.6319 115.028 78.9634 111.223 90.5188 102.743H90.51C90.7667 103.093 91.0525 103.428 91.3675 103.749L125.055 137.436C126.696 139.078 128.921 140.001 131.243 140.002C133.564 140.003 135.79 139.081 137.432 137.441C139.074 135.8 139.997 133.574 139.997 131.253C139.998 128.932 139.077 126.706 137.436 125.064L103.749 91.3763C103.436 91.0594 103.1 90.7757 102.743 90.51ZM105 56.875C105 63.1949 103.755 69.4529 101.337 75.2917C98.9182 81.1305 95.3734 86.4357 90.9046 90.9045C86.4357 95.3734 81.1305 98.9182 75.2917 101.337C69.4529 103.755 63.1949 105 56.875 105C50.5552 105 44.2972 103.755 38.4584 101.337C32.6196 98.9182 27.3143 95.3734 22.8455 90.9045C18.3767 86.4357 14.8318 81.1305 12.4133 75.2917C9.99483 69.4529 8.75004 63.1949 8.75004 56.875C8.75004 44.1115 13.8203 31.8707 22.8455 22.8455C31.8707 13.8203 44.1115 8.75003 56.875 8.75003C69.6386 8.75003 81.8794 13.8203 90.9046 22.8455C99.9297 31.8707 105 44.1115 105 56.875Z" fill="black"/>
</svg>
