<svg width="146" height="128" viewBox="0 0 146 128" fill="none" xmlns="http://www.w3.org/2000/svg">
<path d="M119.157 56.9566C119.157 56.9566 121.084 67.5645 121.515 69.7887H113.049C113.885 67.2508 117.104 57.3844 117.104 57.3844C117.053 57.4699 117.941 54.7895 118.448 53.1355L119.157 56.9566ZM146 13.8125V114.188C146 121.744 140.55 127.875 133.833 127.875H12.1667C5.44965 127.875 0 121.744 0 114.188V13.8125C0 6.25586 5.44965 0.125 12.1667 0.125H133.833C140.55 0.125 146 6.25586 146 13.8125ZM38.6545 85.4438L54.674 41.1875H43.9014L33.9399 71.4141L32.85 65.2832L29.3014 44.923C28.7184 42.1 26.9187 41.3016 24.6882 41.1875H8.28854L8.11111 42.0715C12.116 43.2121 15.6899 44.866 18.8076 46.9477L27.8819 85.4438H38.6545ZM62.5823 85.5008L68.9698 41.1875H58.7802L52.4181 85.5008H62.5823ZM98.043 71.0148C98.0937 65.9676 95.3562 62.118 89.501 58.9527C85.9271 56.9281 83.7472 55.5594 83.7472 53.4777C83.7979 51.5957 85.5976 49.6566 89.6024 49.6566C92.9229 49.5711 95.3562 50.4551 97.1812 51.3391L98.0937 51.8238L99.4878 42.2426C97.4854 41.3586 94.2917 40.3605 90.3628 40.3605C80.3 40.3605 73.2281 46.4059 73.1774 55.0176C73.1014 61.3766 78.2469 64.9125 82.0996 67.0512C86.0285 69.2184 87.3719 70.6441 87.3719 72.5547C87.3212 75.5203 84.1781 76.8891 81.2632 76.8891C77.2076 76.8891 75.0278 76.1762 71.7073 74.5223L70.3639 73.8094L68.9444 83.7613C71.3271 84.9875 75.7375 86.0711 80.3 86.1281C90.9965 86.1566 97.967 80.1969 98.043 71.0148ZM133.833 85.5008L125.621 41.1875H117.738C115.305 41.1875 113.454 41.9859 112.415 44.866L97.2826 85.5008H107.979C107.979 85.5008 109.728 80.0258 110.108 78.8566H123.187C123.492 80.425 124.404 85.5008 124.404 85.5008H133.833Z" fill="black"/>
</svg>
