<svg width="146" height="146" viewBox="0 0 146 146" fill="none" xmlns="http://www.w3.org/2000/svg">
<path d="M73 0C53.1896 0 50.6985 0.09125 42.9149 0.438C35.1313 0.803 29.8296 2.02575 25.185 3.8325C20.3108 5.66047 15.897 8.53551 12.2549 12.2549C8.53551 15.897 5.66047 20.3108 3.8325 25.185C2.02575 29.8205 0.793875 35.1312 0.438 42.8875C0.09125 50.6894 0 53.1714 0 73.0091C0 92.8286 0.09125 95.3106 0.438 103.094C0.803 110.869 2.02575 116.17 3.8325 120.815C5.70312 125.615 8.19425 129.684 12.2549 133.745C16.3064 137.806 20.3761 140.306 25.1759 142.167C29.8296 143.974 35.1221 145.206 42.8966 145.562C50.6894 145.909 53.1714 146 73 146C92.8286 146 95.3015 145.909 103.094 145.562C110.86 145.197 116.18 143.974 120.824 142.167C125.695 140.338 130.106 137.463 133.745 133.745C137.806 129.684 140.297 125.615 142.167 120.815C143.965 116.17 145.197 110.869 145.562 103.094C145.909 95.3106 146 92.8286 146 73C146 53.1714 145.909 50.6894 145.562 42.8966C145.197 35.1313 143.965 29.8205 142.167 25.185C140.34 20.3108 137.464 15.897 133.745 12.2549C130.103 8.53551 125.689 5.66047 120.815 3.8325C116.161 2.02575 110.851 0.793875 103.085 0.438C95.2924 0.09125 92.8195 0 72.9818 0H73ZM66.4574 13.1582H73.0091C92.5001 13.1582 94.8087 13.2221 102.501 13.578C109.619 13.8974 113.488 15.0928 116.061 16.0874C119.465 17.4105 121.901 18.9982 124.456 21.5532C127.011 24.1082 128.59 26.5355 129.913 29.9482C130.916 32.5124 132.103 36.3814 132.422 43.4989C132.778 51.1913 132.851 53.4999 132.851 72.9818C132.851 92.4636 132.778 94.7814 132.422 102.474C132.103 109.591 130.907 113.451 129.913 116.024C128.734 119.19 126.867 122.054 124.447 124.41C121.892 126.965 119.465 128.544 116.052 129.867C113.497 130.871 109.628 132.057 102.501 132.385C94.8087 132.732 92.5001 132.814 73.0091 132.814C53.5181 132.814 51.2004 132.732 43.508 132.385C36.3905 132.057 32.5306 130.871 29.9574 129.867C26.7895 128.692 23.9221 126.828 21.5624 124.41C19.1376 122.052 17.2675 119.185 16.0874 116.015C15.0928 113.451 13.8974 109.582 13.578 102.465C13.2313 94.7722 13.1582 92.4636 13.1582 72.9635C13.1582 53.4634 13.2313 51.173 13.578 43.4806C13.9065 36.3631 15.0928 32.4941 16.0965 29.9209C17.4196 26.5173 19.0074 24.0809 21.5624 21.5259C24.1174 18.9709 26.5446 17.3923 29.9574 16.0691C32.5306 15.0654 36.3905 13.8791 43.508 13.5506C50.2423 13.2404 52.852 13.1491 66.4574 13.14V13.1582ZM111.973 25.2762C110.822 25.2762 109.683 25.5028 108.621 25.9431C107.558 26.3833 106.592 27.0286 105.779 27.842C104.965 28.6554 104.32 29.6211 103.88 30.6839C103.439 31.7468 103.213 32.8859 103.213 34.0363C103.213 35.1866 103.439 36.3257 103.88 37.3886C104.32 38.4514 104.965 39.4171 105.779 40.2305C106.592 41.0439 107.558 41.6892 108.621 42.1294C109.683 42.5697 110.822 42.7962 111.973 42.7962C114.296 42.7962 116.524 41.8733 118.167 40.2305C119.81 38.5877 120.733 36.3595 120.733 34.0363C120.733 31.713 119.81 29.4848 118.167 27.842C116.524 26.1992 114.296 25.2762 111.973 25.2762ZM73.0091 35.5145C68.0366 35.4369 63.0984 36.3493 58.4819 38.1985C53.8654 40.0478 49.6629 42.7969 46.1191 46.2859C42.5753 49.7748 39.7609 53.9339 37.8399 58.521C35.9189 63.1081 34.9296 68.0315 34.9296 73.0046C34.9296 77.9776 35.9189 82.9011 37.8399 87.4881C39.7609 92.0752 42.5753 96.2343 46.1191 99.7233C49.6629 103.212 53.8654 105.961 58.4819 107.811C63.0984 109.66 68.0366 110.572 73.0091 110.495C82.8508 110.341 92.2374 106.324 99.1429 99.3097C106.048 92.2956 109.919 82.8474 109.919 73.0046C109.919 63.1617 106.048 53.7135 99.1429 46.6995C92.2374 39.6854 82.8508 35.668 73.0091 35.5145ZM73.0091 48.6636C76.205 48.6636 79.3696 49.2931 82.3223 50.5161C85.2749 51.7391 87.9577 53.5317 90.2175 55.7916C92.4774 58.0514 94.27 60.7342 95.493 63.6869C96.716 66.6395 97.3455 69.8041 97.3455 73C97.3455 76.1959 96.716 79.3605 95.493 82.3131C94.27 85.2658 92.4774 87.9486 90.2175 90.2084C87.9577 92.4683 85.2749 94.2609 82.3223 95.4839C79.3696 96.7069 76.205 97.3364 73.0091 97.3364C66.5547 97.3364 60.3647 94.7724 55.8007 90.2084C51.2368 85.6445 48.6728 79.4544 48.6728 73C48.6728 66.5456 51.2368 60.3555 55.8007 55.7916C60.3647 51.2276 66.5547 48.6636 73.0091 48.6636Z" fill="#379777"/>
</svg>
